<svg xmlns="http://www.w3.org/2000/svg" width="112.363" height="38.42"  fill="#127791" xmlns:v="https://vecta.io/nano"><path d="M44.762 38.419c-10.13 0-19.61-8.224-19.61-19A19.5 19.5 0 0 1 44.762 0c10.786 0 19.665 8.624 19.665 19.21 0 10.481-8.879 19.209-19.665 19.209zm-.05-35.057c-8.781.131-15.835 7.278-15.853 16.06a15.93 15.93 0 0 0 31.853-.127 16.02 16.02 0 0 0-16-15.933zM69.337 37.77V4.011h-8.5V.649h20.715v3.362h-8.5V37.77zm38.972 0l-5.365-12.491H85.688l-5.42 12.491h-3.86L92.255.649h4.158l15.95 37.121zM94.367 4.855l-7.283 17.049h14.4zM0 37.77V.649h9.529c7.775 0 11.939 4.249 11.939 9.881 0 3.035-1.1 5.117-4.06 7.478a9.71 9.71 0 0 1 6.167 9.1c0 5.062-2.859 10.634-12.539 10.634zm9.578-21.116c7.126 0 8.182-4.115 8.182-6.27 0-2.762-1.608-6.373-8.5-6.373H3.714v12.643zm1.159 17.753c4.765 0 9.1-1.906 9.1-7.283 0-4.212-3.642-7.126-9.1-7.126H3.714v14.409z"/></svg>