<svg xmlns="http://www.w3.org/2000/svg" width="338.894" height="319.559"  xmlns:v="https://vecta.io/nano"><path d="M171.621 319.153c0-.195-.455-.6-1.008-.889-1.854-.982-3.415-3.451-4.575-7.244-2.237-7.3-2.7-11.014-2.708-21.71-.005-10.731.635-17.676 2.371-25.6.993-4.527 3-9.141 4.647-10.693 1.281-1.2 2.245-1.281 4.243-.347 4.431 2.074 7.615 8.341 9.461 18.626.774 4.307.944 16.324.324 23.029-.51 5.451-1.666 10.822-3.446 16-1.507 3.879-4.084 7.609-5.5 7.958a2.74 2.74 0 0 0-1.152.694c-.571.62-2.662.76-2.662.177zm-80-17.388c-1.62-1.6-1.967-2.669-1.965-6.054.005-4.778.985-8.875 4.529-18.957a154.15 154.15 0 0 1 8.769-17.405c3.927-5.829 7.682-10.25 11.117-13.088 5.959-4.922 11.086-3.59 12.357 3.208.869 4.649-1.5 14.562-5.532 23.145-3.569 7.6-4.969 10-10.428 17.95-2.6 3.783-8.481 9.733-10.693 10.817a48.53 48.53 0 0 0-2.206 1.152 5.4 5.4 0 0 1-2.8.555c-1.785 0-1.831-.023-3.153-1.322zm156.882-3.75c-.882-.345-1.726-.779-2.52-1.294-1.926-1.241-8.885-8-11.644-11.306l-2.371-2.826c-.486-.552-3.76-5.143-5.329-7.472a119.93 119.93 0 0 1-12.763-26.954c-1.016-3.233-1.078-6.591-.157-8.667 1.284-2.347 3.241-4.257 5.619-5.484 1.679-.8 1.929-.846 4.187-.706 2.723.167 4.637.939 7.6 3.069 3.577 2.575 8.713 9.062 12.763 16.124 1.2 1.992 2.271 4.058 3.207 6.186 0 .076.877 1.942 1.949 4.153s2.039 4.292 2.147 4.629c.297.754.633 1.492 1.006 2.211.445.884 1.309 2.727 1.924 4.1l2.093 4.563c3.976 8.389 4.307 9.257 4.3 11.252-.005 1.978-.815 3.525-2.942 5.662-2.5 2.509-6.244 3.654-9.063 2.765zM34.105 240.211c-1.53-.395-2.913-1.225-3.981-2.39a2.43 2.43 0 0 1-.594-2.357c.224-1.856 1.818-4.6 4.053-6.961l1.72-1.815a79.31 79.31 0 0 1 13.502-10.413 68.94 68.94 0 0 0 3.215-1.9 55.02 55.02 0 0 1 13.6-5.935c2.608-.641 5.858-.684 7.283-.1 1.278.527 2.327 1.456 2.327 2.066.015.284.128.554.319.765a3.52 3.52 0 0 1 .2 1.985c-.339 4.641-6.923 12.1-15.826 17.922-8.8 5.758-16.41 8.852-22.7 9.234-1.037.09-2.08.056-3.109-.1zm104.441-3.477c-14.494-1.618-26.671-6.609-37.168-15.235-4.058-3.647-7.893-7.535-11.485-11.642-7.99-10.232-12.241-21.236-13.974-36.178-.508-6.672-.458-13.375.149-20.039.689-5.1 1.2-8.275 1.564-9.741a68.99 68.99 0 0 0 .7-3.2c.175-.919.628-2.671 1-3.894l.977-3.378c1.339-4.21 3.041-8.295 5.087-12.21 4.92-9.764 11.698-18.474 19.956-25.64 5.053-4.527 6.056-5.391 6.267-5.393a10.32 10.32 0 0 0 1.767-1.464c2.439-2.162 5.021-4.156 7.73-5.968.957-.643 2.111-1.456 2.569-1.808a65 65 0 0 1 9-5.474 25.98 25.98 0 0 1 7.784-2.7c1.479-.386 3.027-.428 4.524-.122 3.186.506 5.318 1.552 6.864 3.37 1.7 2 2.24 3.469 2.43 6.654a25.29 25.29 0 0 1-6 18.071c-2.556 3-3.166 3.545-5.781 5.17a83.32 83.32 0 0 0-23 22.264l-2.474 3.692a11.15 11.15 0 0 0-.81 1.3c0 .058-.586 1.339-1.3 2.846-4.917 10.308-7.023 19.071-7.018 29.177 0 10 1.99 17.233 6.879 25.047 2.543 4.066 5.112 6.976 10.2 11.549a56.93 56.93 0 0 0 7.818 4.844c9.7 4.856 23.22 6.176 36.039 3.512 2.227-.451 4.43-1.015 6.6-1.689a85.94 85.94 0 0 0 11.737-5.044c9.621-5.206 19.738-13.82 25.768-21.938 5.547-7.47 8.682-13.741 11.963-23.935a79.71 79.71 0 0 0 1.978-10.992c.514-3.979.52-8.008.018-11.989l-.373-3.082-1.558-2.074c-1.274-1.608-2.643-3.139-4.1-4.583-10.554-10.429-24.027-12.564-40.154-6.355-9.016 3.471-16.492 8.171-20.427 12.85a18.72 18.72 0 0 0-4.912 11.07c-.345 3.337.807 8.184 2.937 12.344 1.45 2.828 2.309 3.834 5.277 6.158 2.893 2.266 4.925 3.464 6.3 3.717.577.131 1.181-.018 1.631-.402s.692-.958.653-1.548c0-1.347-1.258-5.026-3-8.776-2.826-6.082-3.065-8.946-1.023-12.235 1.97-3.173 6.267-5.862 10.667-6.674a45.36 45.36 0 0 1 12.861.577c3.365.859 6.454 2.566 8.97 4.96 2.211 1.948 3.989 4.338 5.218 7.016 1.525 2.96 2.225 6.276 2.026 9.6.073 2.209-.181 4.418-.753 6.553a26.36 26.36 0 0 1-1.173 3.758 3.79 3.79 0 0 0-.437 1.155c0 .737-2.428 5.684-4.107 8.386s-5.519 7.206-6.859 8.039c-.67.449-1.315.935-1.929 1.458-2.883 2.441-8.17 4.722-13.566 5.859-4.076.858-17.7 1.114-22.417.423-6.7-.985-8.71-2-12.725-6.414-2.873-3.162-7.9-12.989-11.462-22.4-1.311-3.101-2.138-6.386-2.453-9.738-.429-4.011-.126-8.066.892-11.969 1.186-4.937 5.082-12.415 8.973-17.21.454-.517.858-1.076 1.206-1.669.249-.433.558-.828.918-1.175l1.875-2.086c4.375-4.854 9.173-9.31 14.337-13.315.732-.52 1.429-1.087 2.086-1.7a1.14 1.14 0 0 1 .612-.423 11.53 11.53 0 0 0 2.063-1.36 79.46 79.46 0 0 1 14.288-7.629c7.022-2.819 14.571-4.089 22.129-3.722a53.2 53.2 0 0 1 13.769 2.081 59.42 59.42 0 0 1 21.612 11.263c2.309 1.957 6.283 6.171 6.522 6.918.1.286.283.519.424.519a45.27 45.27 0 0 1 4.3 5.983 36.35 36.35 0 0 1 3.84 10.437l.741 3.758c1.278 6.5 1.849 19.259 1.314 29.362-.566 10.652-1.906 16.4-5.544 23.794-5.3 10.774-14.054 20.1-26.745 28.486a25.8 25.8 0 0 1-3.3 1.988c-.405.139-.776.361-1.09.651-1.952 1.583-13.758 7.647-18.75 9.627l-3.672 1.5c-3.173 1.37-15.739 5.2-17.058 5.2-.678.073-1.348.21-2 .41a137.15 137.15 0 0 1-14.1 2.405 122.75 122.75 0 0 1-21.121.408zm169.311-.874l-4.665-2.142c-6.056-2.687-20.666-10.422-28.265-14.964l-4.238-2.494c-1.088-.628-2.705-1.605-3.6-2.172l-4.1-2.552c-5.367-3.287-6.684-4.431-8-6.966-.555-1.074-.62-1.514-.486-3.439a5.42 5.42 0 0 1 .743-2.99 2.91 2.91 0 0 0 .592-1.213c0-.706 1.985-2.649 3.515-3.436 1.33-.686 1.682-.737 4.963-.729 3.873.005 5.447.327 9.639 1.937 6.059 2.33 12.488 5.968 20.777 11.749l10.852 7.733c1.286.982 3.3 2.37 6.925 4.76 3.906 2.58 5.372 3.927 5.984 5.507 1.319 3.39-1.373 11.083-4.3 12.285-1.787.734-3.415.511-6.352-.874zM30.711 163.217c-8.067-.6-15.273-1.828-19.221-3.284-.931-.344-2.392-.851-3.24-1.127a15.95 15.95 0 0 1-6.442-4.087c-.507-.668-1.108-1.415-1.342-1.658-.471-.491-.568-1.8-.154-2.056.46-.597.848-1.246 1.155-1.934 1.08-2.157 2.847-3.661 6.064-5.16 2.457-1.109 5.013-1.982 7.635-2.608l2.826-.587a84.4 84.4 0 0 1 17.526-1.137 89.21 89.21 0 0 1 12.3 1c8.435 1.185 15.967 4.082 18.529 7.13 1.918 2.276 2.186 3.393 1.376 5.727-1.535 4.439-9.037 7.882-20.108 9.229-5.619.486-11.261.671-16.9.555zm248.494-1.909a37.68 37.68 0 0 1-8.744-4.459c-2.59-2.076-3.562-4.651-2.608-6.9.779-1.836 4.742-4.525 8.628-5.859l2.829-1.023c1.826-.686 8.51-2.679 10.739-3.2 4.259-1 5.748-1.314 8.479-1.81 9.577-1.704 19.255-2.783 28.972-3.231 5-.218 6.681.175 8.471 1.988a7.88 7.88 0 0 1 2.129 4.915c0 .451.108.755.234.679.334-.2.419 2.593.1 2.983a8.83 8.83 0 0 0-.743 1.924c-.766 2.611-2.219 3.651-7.8 5.591a208.56 208.56 0 0 1-24.431 5.9c-1.553.238-3.207.544-3.672.686-.756.228-2.9.585-10.035 1.679-3.4.522-10.914.608-12.542.144zm-211.888-54.7c-1.322-.284-3.739-.972-5.37-1.527-5.113-1.948-10.056-4.314-14.779-7.075a25.43 25.43 0 0 0-2.345-1.413c-.255 0-4.49-2.841-8.031-5.386-5.628-4.21-10.754-9.051-15.278-14.43-3.168-4.13-4.737-8.629-3.49-10 .5-.544.73-.577 3.22-.423 5.665.347 18.678 4.765 28.972 9.837a134.93 134.93 0 0 1 13.851 7.566l3.865 2.578c2.402 1.663 4.655 3.53 6.735 5.581a85.9 85.9 0 0 0 1.739 1.945 13.45 13.45 0 0 1 2.955 5.8 6.29 6.29 0 0 1-4.128 6.712c-2.23.942-4.354 1.008-7.916.238zm181.812-8.351c-2.417-.494-6.079-3-7.031-4.806-.621-1.525-.565-3.243.152-4.725 1.129-2.294 5.943-7.026 11.6-11.4 2.312-1.788 15.7-10.7 23.214-15.461 4.128-2.613 6.532-3.54 8.451-3.259 1.381.2 3.968 1.19 3.968 1.517 0 .109.3.337.676.5.733.329 2.9 2.962 3.706 4.512.329.745.502 1.55.507 2.365 0 2.3-.846 3.7-4.259 7.034-3.271 3.193-8.049 7.553-9.536 8.7l-3.135 2.431c-4.181 3.251-5.058 3.894-7.6 5.581-7.784 5.168-16.039 7.961-20.712 7.011zm-141.956-28.3c-2.052-.742-3.212-1.6-6.807-5.019a88.4 88.4 0 0 1-8.073-8.561c-1.1-1.3-3.536-4.57-4.66-6.262a57.63 57.63 0 0 1-3.636-6.32c-.136-.463-.321-.909-.553-1.332-2.011-4.319-3.356-8.917-3.991-13.638-.81-6 .357-15.007 2.628-20.251.7-1.618 1.44-1.889 3.135-1.144 1.641.722 7.993 7.049 8.762 8.733a20.73 20.73 0 0 0 1.34 1.947c1.131 1.507 2.062 2.887 4.644 6.89 5.974 9.257 11.773 23.244 13.877 33.466 1.188 5.773 1.265 6.525.82 8-.808 2.681-2.281 3.707-5.267 3.669a11.3 11.3 0 0 1-2.219-.175zm74.265-1.772c-4.475-1.051-6.941-4.844-7.491-11.528-.186-6.312-.023-12.63.486-18.925 1.276-9.655 2.081-13.569 4.117-20.044 3.271-10.394 5.673-14.754 9.019-16.367a4.27 4.27 0 0 0 1.576-1.028c0-.413 1.828-.322 2.734.132.437.223 1.69.793 2.777 1.269a12.75 12.75 0 0 1 3.049 1.881c1.072 1.028 2.459 3.5 2.459 4.391.057.534.169 1.061.334 1.572.633 2.074-.55 18.555-1.89 26.376l-.725 4.315c-.828 5.077-3.181 14.291-4.084 16.015-.223.409-.366.856-.419 1.319 0 .646-1.453 3.606-2.693 5.484a18.18 18.18 0 0 1-4.814 4.661 7.71 7.71 0 0 1-4.439.466zm-11.725 249.722c-1.939-1.813-3.017-3.722-4.122-7.307-2.091-6.773-2.536-10.546-2.536-21.426s.669-17.874 2.495-26.126c1.276-5.758 3.842-10.564 5.951-11.136 1.535-.418 3.832.436 5.668 2.107 4.868 4.429 8.029 16.109 8.016 29.638-.008 14.924-3.186 28.589-7.725 33.3-1.651 1.714-3.189 2.552-4.678 2.552-1.26 0-1.471-.109-3.068-1.6zM93.64 303.365a5.85 5.85 0 0 1-3.986-4.142c-.666-2.355-.146-8.3 1.134-13a88.9 88.9 0 0 1 7.1-18.2c5.172-10.273 10.027-16.962 15.793-21.766 5.272-4.393 9.69-4.335 12.1.157 3.091 5.766-.615 20.1-9.019 34.894-8.16 14.357-17.577 23.34-23.119 22.057zm154.691-5.13c-2.032-.661-3.526-1.813-8.121-6.254-5.614-5.343-10.529-11.374-14.63-17.95a135.18 135.18 0 0 1-11.83-25.285 14.42 14.42 0 0 1-.864-5.429c0-2.4.1-2.9.807-4.378 1.235-2.321 3.22-4.154 5.632-5.2a6.64 6.64 0 0 1 4.179-.727c4.74.246 9.276 3.3 14.154 9.546a106.96 106.96 0 0 1 9.07 14.592l1.558 3.36 4.392 9.462c8.7 18.843 8.435 18.2 8.147 20.272-.375 2.707-3.22 6.09-6.28 7.467a9.64 9.64 0 0 1-6.216.527zM33.622 240.358a7.07 7.07 0 0 1-4.009-2.7c-.954-1.59-.2-4.375 1.906-7.069 4.192-5.35 10.282-10.442 18.184-15.2 3.427-2.19 7.05-4.055 10.824-5.571 4.066-1.636 5.943-2.043 9.379-2.046 2.945 0 3.037.018 4.1.858 3.155 2.5 2.731 6.2-1.324 11.513-6.992 9.153-22.649 18.613-33.63 20.317-1.794.38-3.65.345-5.429-.1zm105.773-3.269c-12.214-.976-23.945-5.203-33.974-12.242-14.46-10.192-24.091-24.016-27.89-40.037-1.792-7.563-2.124-10.688-2.137-20.036-.005-5.024.129-9.184.342-10.716l.661-4.869c.375-2.821 2-10.483 2.808-13.22 3.801-13.062 10.667-25.027 20.026-34.9 5.088-5.091 10.463-9.886 16.1-14.362.422-.306 1.648-1.253 2.731-2.107s2.857-2.157 3.945-2.9l4.169-2.849a59.49 59.49 0 0 1 11.017-5.6c3.479-1.058 5.761-1.279 8.3-.8 2.906.547 4.763 1.41 6.231 2.894 2.021 2.046 2.934 4.674 2.934 8.457a25.97 25.97 0 0 1-11.212 21.857c-7.44 4.213-17.179 13.374-23.05 21.679-7.366 10.533-11.619 22.927-12.272 35.763-.522 12.116 2.878 22.593 10.266 31.635 6.463 8.004 15.56 13.451 25.668 15.367 13.98 2.765 28.728.479 42.206-6.543a85.19 85.19 0 0 0 27.365-23.485c4.752-6.6 8.356-13.955 10.657-21.755a61.16 61.16 0 0 0 2.4-23.27c-.36-3.507-.424-3.646-3.279-7.095-5.622-6.8-13.455-11.361-21.409-12.473a46.3 46.3 0 0 0-11.475.418c-8.892 1.864-17.308 5.531-24.727 10.775-4.981 3.639-8.435 8.133-9.6 12.5-1.119 4.188-.424 9.617 1.844 14.38 1.126 2.77 3.022 5.16 5.465 6.885 3.05 2.411 5.159 3.682 6.517 3.932.851.157 1.044.086 1.474-.562.874-1.314.37-3.011-3.732-12.529-.843-1.578-1.218-3.364-1.08-5.148 0-2.324.1-2.818.756-4.069 1.649-2.486 3.922-4.495 6.591-5.826 3.135-1.486 5.694-1.891 10.868-1.719 5.259.175 7.746.734 11.5 2.583 7.892 3.894 12.822 13.3 11.737 22.393a43.3 43.3 0 0 1-5.964 16.831 36.11 36.11 0 0 1-13.908 13.238c-5.974 2.957-11.23 3.859-22.543 3.874-8.991.005-14.525-.919-17.845-3-3.14-1.965-7.262-7.667-10.639-14.716-3.41-7.12-6.275-14.509-7.077-18.251a41.55 41.55 0 0 1 .005-13.151c2.1-9.933 8.018-19.385 18.555-29.64q15.426-15.014 31.652-20.391a51.43 51.43 0 0 1 18.935-2.628c3.09-.016 6.173.316 9.189.988 10.608 2.246 18.583 5.935 26.018 12.03 4.971 4.313 9.179 9.434 12.447 15.147 4.176 7.6 6.216 24.538 5.2 43.131-.54 9.862-1.918 15.739-5.362 22.872a60.32 60.32 0 0 1-12.858 17.522c-5.534 5.484-9.687 8.655-18.8 14.357-9.044 5.43-18.667 9.831-28.69 13.121a104.81 104.81 0 0 1-16.677 4.178c-11.128 2.132-21.815 2.866-30.387 2.086zm168.887-.684c-11.279-4.92-29.852-14.906-42.541-22.875l-4.945-3.069c-2.914-1.78-4.693-3.337-5.7-4.988-.715-1.177-.8-1.583-.8-3.687-.12-1.416.162-2.837.813-4.1 3.279-7 11.539-7.161 25.066-.481 5.655 2.793 12.4 7.183 24.737 16.1l7.178 5.031c5.485 3.788 6.038 4.284 6.64 5.966.748 2.089.465 4.646-.905 8.173-1.859 4.786-4.806 6-9.543 3.935zM30.85 163.49c-12.46-.831-22.114-3.246-27.45-6.867-1.726-1.172-3.359-3.517-3.359-4.824 0-1.433 1.983-4.573 3.778-5.986 3.724-2.925 10.446-5.064 19.259-6.13 7.154-.505 14.336-.451 21.481.16 10.639 1.317 17.873 3.755 21.527 7.254a6.27 6.27 0 0 1 2.075 2.9c.867 3.231-1.191 6.6-5.339 8.748-3.991 2.061-8.967 3.416-15.479 4.211a159.2 159.2 0 0 1-16.495.529zm248.171-1.927c-3.243-1.182-6.303-2.815-9.091-4.849-2.831-2.486-3.531-5.143-1.983-7.543a9.04 9.04 0 0 1 1.769-1.965c4.187-3.14 16.968-7.287 29.417-9.548 9.6-1.742 27.566-3.507 32.084-3.15 2.155.172 4.516 1.226 5.411 2.418a13.33 13.33 0 0 1 2.08 6.859 7.44 7.44 0 0 1-.252 2.418c-.266.485-.471 1.001-.609 1.537-.782 2.689-3.557 4.208-12.47 6.834-4.009 1.177-14.7 3.616-20.211 4.608l-4.662.843-4.948.828-3.816.59c-3.161.517-11.246.592-12.719.119zm-209.589-54.28l-2.119-.43c-7.908-1.545-19.645-7.457-31.091-15.658-4.02-3.025-7.778-6.383-11.236-10.037q-7.233-7.619-7.628-12.486c-.121-1.5-.059-1.793.458-2.251 2.266-2.013 18.228 2.6 31.976 9.242 9.258 4.472 17.647 9.538 22.376 13.514a27.92 27.92 0 0 1 6.54 7.685c2.615 5.226-.5 10.186-6.563 10.455a16.86 16.86 0 0 1-2.711-.033zm179.4-8.9a10.06 10.06 0 0 1-5.344-3c-3.523-3.259-2.942-6.176 2.268-11.4 2.94-3.045 6.176-5.788 9.662-8.189 5.8-4.32 24.374-16.154 26.653-16.977 2.206-.8 2.947-.8 5.326-.033 1.607.519 2.2.914 3.968 2.628 2.345 2.281 3.245 3.947 3.292 6.1.054 2.312-.982 3.96-4.814 7.692-13.671 13.316-27.275 22.095-36.109 23.305a9.6 9.6 0 0 1-4.9-.127zm-140.41-27.958c-2.4-.342-3.85-1.188-7.1-4.142a91.08 91.08 0 0 1-13.517-15.477c-8.839-13.038-11.107-26.878-6.648-40.581 1.134-3.484 1.962-4.115 4.045-3.079 5.817 2.894 15.587 16.681 22.222 31.365 4.03 8.92 7.694 21.525 7.694 26.473 0 2.375-1.721 4.953-3.546 5.312l-1.3.253a9.28 9.28 0 0 1-1.854-.122zm73.007-1.967c-3.425-.805-5.8-3.335-7.167-7.632-.476-1.5-.53-2.638-.52-11.133a117.49 117.49 0 0 1 .363-11.828l.646-4.593c1.471-11.207 6.3-25.865 9.885-29.985 1.533-1.76 4.161-3.271 5.694-3.271 1.032.093 2.045.338 3.006.727 4.521 1.78 6.519 4.039 7.422 8.386.977 4.707-1.553 28.807-3.981 37.9l-.869 3.357c-.93 3.665-2.169 7.245-3.706 10.7-1.723 3.261-4.03 5.781-6.319 6.9a7.78 7.78 0 0 1-4.454.468zm-11.274 250.105c-1.627-1.203-2.862-2.86-3.55-4.763-2.716-6.2-3.747-12.934-3.747-24.49 0-17.57 2.507-31.071 6.725-36.178 1.4-1.7 2.945-1.95 5.313-.863 6.985 3.2 11.228 18.071 10.294 36.069-.494 9.48-1.648 16.271-3.7 21.771-2.947 7.885-7.532 11.308-11.328 8.455zm-77.05-15.139a6.12 6.12 0 0 1-3.127-2.937c-2.8-5.872 1.636-21.993 10.292-37.373 3.914-6.956 7.034-11.093 11.647-15.453 5.4-5.1 9.2-6.145 12.442-3.416 2.937 2.476 3.4 8.108 1.345 16.286-2.029 8.07-7.018 18.707-12.838 27.376-4.786 7.13-10.729 13.167-14.682 14.916-1.609.648-3.363.855-5.079.6zm155.817-4.892c-2.037-.512-2.837-.99-5.519-3.309-12.3-10.624-22.078-25.351-28.692-43.2-1.6-4.332-2.1-6.475-2.109-9.077a6.76 6.76 0 0 1 .988-4.072 10.9 10.9 0 0 1 5.46-5.173c1.267-.691 2.711-.99 4.148-.858 6.766.068 13.229 6.049 21.16 19.6 1.751 2.99 15.157 31.552 16.171 34.449a6.7 6.7 0 0 1-.409 5.738 11.63 11.63 0 0 1-5.483 5.178c-1.753.931-3.786 1.191-5.717.732zM33.051 240.417c-1.625-.626-2.995-1.777-3.891-3.271-1.684-4 6.982-13.544 19.244-21.191 6.2-3.866 12.581-6.852 16.929-7.915 2.79-.681 6.869-.714 8.093-.066 1.945 1.053 3.072 3.168 2.86 5.37-.519 4.55-7.234 12.28-15.343 17.666-7.458 4.955-15.116 8.417-20.89 9.44a22.22 22.22 0 0 1-7-.035zm108.077-3.042c-17.847-1.251-32.789-7.971-45.418-20.424-11.418-11.258-17.6-23.867-19.961-40.753-.769-7.497-.806-15.052-.111-22.556 2.047-17.246 6.329-29.286 15-42.164 5.228-7.766 11.246-13.962 22.638-23.308 9.435-7.743 18.035-13.149 24.022-15.109 7.021-2.294 13.928-.319 16.325 4.672 2.086 4.34 1.386 12.26-1.623 18.4-2.064 3.962-5.08 7.349-8.777 9.857a81.3 81.3 0 0 0-21.227 19.426c-11.1 14.714-16.06 34.383-12.7 50.355 2.895 12.873 11.25 23.848 22.888 30.066a49.9 49.9 0 0 0 12.244 4.221c3.356.7 4.05.752 10.935.76 6.334.005 7.836-.073 10.886-.6 13.864-2.393 26.244-8.9 38.215-20.082 14.55-13.592 22.818-32.805 22.168-51.52-.211-6.1-.37-6.837-1.911-8.824-4.86-6.277-11.488-11.113-17.829-13.007-2.96-.969-6.068-1.406-9.181-1.291-7.44 0-14.1 1.783-23.042 6.163-6.038 2.955-9.736 5.462-12.966 8.789-3.191 3.287-4.485 5.5-5.39 9.214-1.1 4.5-.345 9.417 2.2 14.4 1.72 3.37 2.248 4 5.526 6.571 8.211 6.439 9.672 4.4 4.719-6.6-2.7-5.986-3.009-8.751-1.371-12.184 1.278-2.674 5.861-5.928 9.88-7.009a33.8 33.8 0 0 1 10.292-.42c6.043.749 9.85 2.367 13.375 5.687 5.147 4.495 7.873 11.153 7.355 17.967-.352 8.8-4.835 18.661-11.519 25.356-7.62 7.632-15.52 10.267-30.832 10.283-7.72.005-13.779-.922-17.23-2.646-3.539-1.765-7.008-6.224-11.084-14.248a119.61 119.61 0 0 1-7.165-17.494c-2.952-10.923.175-23.062 8.893-34.487a105.41 105.41 0 0 1 24.22-22.454c13.594-8.969 27.28-12.432 41.543-10.513 4.211.713 8.365 1.731 12.429 3.046a53.94 53.94 0 0 1 29.591 24.96c3.984 7.335 5.992 22.7 5.305 40.584-.365 9.455-1.175 14.364-3.4 20.634-2.397 6.083-5.696 11.77-9.788 16.869a89.52 89.52 0 0 1-19.161 16.831 137.73 137.73 0 0 1-58.686 21.752c-6.719.915-13.509 1.19-20.28.823zm168.846-.076c-2.093-.661-17.8-8.363-23.744-11.647l-3.109-1.709c-7.116-3.9-17.1-9.89-23.819-14.281-5.341-3.492-6.607-7.231-4.2-12.412a9.55 9.55 0 0 1 4.994-4.53c3.161-1.084 8.813-.466 13.856 1.514 6.743 2.648 13.352 6.442 22.6 12.969l13.422 9.414c3.732 2.598 7.183 5.1 7.671 5.553 1.249 1.455 1.84 3.363 1.633 5.269-1.147 7.781-4.531 11.366-9.3 9.86zm-284.35-74.065c-9.163-.917-18.475-3.633-22.368-6.53-3.377-2.509-3.989-4.71-2.2-7.913 2.595-4.644 10.287-7.9 21.741-9.2 6.92-.55 13.874-.55 20.794 0 12.519 1.3 22.032 4.96 24.3 9.348a6.81 6.81 0 0 1-.018 5.424c-2.873 5.841-15.042 9.351-32.128 9.267-3.544-.018-8.1-.2-10.117-.4zm253.968-1.329c-5.29-1.545-10.575-4.965-11.989-7.756-.742-1.108-.903-2.507-.432-3.755.882-2.314 2.939-4.026 6.91-5.745 12.447-5.393 30.112-8.9 50.6-10.047 6.854-.382 8.993-.185 10.742 1 2.065 1.4 3.312 4.436 3.348 8.171.195 1.549-.143 3.117-.957 4.449a5.22 5.22 0 0 1-2.469 2.823c-2.824 1.659-10.1 3.947-18.871 5.933-7.723 1.747-8.453 1.9-12.712 2.651l-5.37.972c-6.738 1.294-16.518 1.975-18.8 1.309zM66.046 106.749c-8.934-2.337-19.684-7.938-30.562-15.916-5.614-4.117-12.308-10.764-15.33-15.218-3-4.416-3.886-7.827-2.415-9.275.7-.691.831-.714 3.037-.557 5.611.395 18.292 4.6 28.553 9.467a135.25 135.25 0 0 1 20.784 12.075c4.21 3.132 7.3 6.523 8.831 9.683.947 1.718 1.13 3.753.505 5.612s-2 3.371-3.791 4.169c-2 .914-6.033.9-9.613-.041zm181.961-8.32c-2.785-.9-5.971-3.646-6.591-5.682a6.01 6.01 0 0 1 .905-4.94c2.97-4.611 10.122-10.543 22.047-18.286 16.868-10.951 17.565-11.336 20.494-11.336 2.441 0 4.418.909 6.632 3.051 3.143 3.038 3.986 5.609 2.878 8.776-.4 1.15-1.152 2.046-4.31 5.155-11.7 11.508-23.528 19.791-32.233 22.571-3.22 1.028-7.784 1.35-9.821.691zM107.031 70.318c-.726-.236-1.434-.523-2.119-.858-1.36-.691-10.724-9.986-13.326-13.225-7.718-9.6-11.686-18.631-12.707-28.886-.484-5.564.164-11.168 1.905-16.474 1.252-4.087 1.849-4.753 3.719-4.153 7.044 2.261 20.738 23.252 26.763 41.027 2.986 8.806 4.529 16.43 3.829 18.9-.479 1.578-1.564 2.902-3.017 3.682a9.2 9.2 0 0 1-5.048-.005zm72.943-2.122a10.68 10.68 0 0 1-4.547-4.031c-.549-1.066-.991-2.184-1.319-3.337-.615-2.091-.653-2.707-.653-10.019-.165-8.547.693-17.084 2.556-25.427 1.97-9.029 5.935-19.332 8.6-22.355a8.52 8.52 0 0 1 5.8-3.008 13.92 13.92 0 0 1 5.879 1.914c3.487 2.132 5.251 6.469 4.866 11.964l-.437 6.854c-.506 7.664-1.508 15.287-3 22.821-1.17 5.884-3.806 14.7-5.2 17.393-1.859 3.593-5.076 6.877-7.375 7.525-1.717.404-3.514.301-5.174-.294zm-10.053 250.379c-2.317-1.676-3.9-4.715-5.365-10.311-1.435-5.479-1.816-9.523-1.808-19.231.005-10.642.64-17.638 2.25-24.769 2.042-9.052 4.866-13.478 8.152-12.779 3.312.706 6.47 3.978 8.44 8.746 2.893 7 4.071 15.038 3.793 25.867-.314 12.242-2.132 21.586-5.388 27.673-2.217 4.145-4.215 5.743-7.167 5.73a3.85 3.85 0 0 1-2.909-.927zM93.213 303.58a6.19 6.19 0 0 1-3.667-3.7c-.831-2.4-.486-8.652.717-13.07a105.64 105.64 0 0 1 11.3-26.306c4.282-7.31 10.878-14.595 15.147-16.727 1.18-.705 2.546-1.032 3.917-.939 1.816 0 2.173.091 3.266.848 2.8 1.932 3.875 6.049 3.047 11.622-1.093 7.348-4.117 15.5-9.217 24.822-4.31 7.877-7.936 12.906-12.655 17.547-3.5 3.439-5.93 5.165-8.193 5.811a5.18 5.18 0 0 1-3.665.094zm154.992-5.043c-1.582-.5-2.767-1.312-5.645-3.844-12.37-10.9-22.636-26.875-28.751-44.759-1.168-3.421-1.286-4.006-1.306-6.54s.054-2.925.8-4.411a10.46 10.46 0 0 1 5.277-5.181 7.33 7.33 0 0 1 4.436-1.114c3.976.018 7.628 1.909 11.665 6.047a66.92 66.92 0 0 1 8.664 11.734c2.453 4 3.469 6.064 10.372 21.034l5.714 12.384c.891 1.695 1.493 3.526 1.782 5.419 0 5.677-7.494 10.992-13.01 9.232zM33.319 240.612c-2.554-.691-4.441-2.679-4.444-4.679-.005-5.639 12.647-17.109 26.64-24.146 6.465-3.251 11.038-4.575 15.16-4.393a5.44 5.44 0 0 1 3.369.866c2.536 1.651 3.04 4.722 1.347 8.2-2.286 4.7-7.507 10.032-14.293 14.6-11.012 7.424-21.857 11.151-27.779 9.546zm277.686-2.966c-4.8-.841-30.569-14.491-48.239-25.548-5.025-3.145-6.416-4.241-7.679-6.047-1.072-1.532-1.083-1.577-1.083-4.229 0-2.352.1-2.887.8-4.38a9.5 9.5 0 0 1 4.572-4.6c2.243-.99 6.244-1.048 10.06-.142 7.1 1.684 15.553 6.166 27.391 14.516l13 9.123 7.535 5.376c1.993 1.6 2.533 4.261 1.636 8.067a17.05 17.05 0 0 1-2.893 6.338c-1.341 1.324-3.252 1.896-5.1 1.529zm-173.032-.4a68.91 68.91 0 0 1-36.605-15.028 100.28 100.28 0 0 1-11.927-11.959c-7.725-10.06-11.837-20.1-13.843-33.8-.7-4.788-.707-18.5-.005-23.794.64-5.69 1.757-11.317 3.338-16.82a85.38 85.38 0 0 1 19.946-34.806c3.184-3.36 6.566-6.527 10.128-9.484 17.014-14.564 28.7-20.834 36.294-19.464 3.271.59 4.819 1.329 6.681 3.2a6.97 6.97 0 0 1 2.335 3.783 22.14 22.14 0 0 1 .206 9.589c-1.306 7.928-5.4 13.815-12.933 18.588a71.14 71.14 0 0 0-5.771 4.173c-13.28 10.865-21.738 23.761-25.511 38.882-3.924 15.737-1.944 29.395 5.959 41.108 3.275 4.45 7.183 8.397 11.6 11.716a47.3 47.3 0 0 0 22.916 7.6c19.308 1.567 38.035-5.773 54-21.168 11.336-10.623 18.784-24.739 21.152-40.093a70.74 70.74 0 0 0 .293-15.96c-.167-1.472-.823-2.845-1.862-3.9a36.68 36.68 0 0 0-19.568-13.291c-3.554-.909-10.474-.912-14.808-.005a63.57 63.57 0 0 0-14.371 5.059c-9.453 4.525-14.908 8.979-17.714 14.463a15.77 15.77 0 0 0-1.836 7.991 20.89 20.89 0 0 0 2.672 10.257c1.618 3.259 2.608 4.378 6.334 7.166 3.451 2.583 5.03 3.221 6.015 2.436.589-.471.6-.57.27-2.276a45.86 45.86 0 0 0-2.289-6.267c-2.579-5.966-2.937-7.232-2.744-9.743.211-2.775.969-4.287 3.238-6.452 1.286-1.267 2.795-2.284 4.452-3 3.431-1.588 5.506-1.907 11.071-1.709 5.146.182 8.111.848 11.652 2.613a23.21 23.21 0 0 1 7.931 7.33c5.365 8.232 5.233 17.415-.414 28.8-1.576 3.493-3.707 6.707-6.311 9.518a33.12 33.12 0 0 1-18.982 10.432c-2.443.476-4.4.6-11.063.709-8.492.142-11.161-.038-15.366-1.061-4.616-1.114-7.412-3.223-10.636-8.014-3.883-5.773-10.1-19.365-11.75-25.7-.661-2.537-.748-3.423-.769-7.735a30.29 30.29 0 0 1 .486-7.1c2.368-10.323 8.559-20.036 19.249-30.19 13.956-13.258 27.221-20.317 41.813-22.254 4.742-.423 9.513-.373 14.245.149 18.508 2.689 32.907 12.159 41.846 27.526 4.4 7.558 6.522 24.834 5.426 44.131a56.87 56.87 0 0 1-1.574 12.151c-4.673 19.289-20.519 35.727-46.609 48.35a126.45 126.45 0 0 1-27.134 9.865c-13.856 3.393-28.111 4.661-39.148 3.482zM28.716 163.675a83.73 83.73 0 0 1-13.085-1.988c-10.436-2.509-15.592-5.75-15.592-9.8.195-2.258 1.257-4.352 2.963-5.844 4.894-4.026 14.365-6.6 25.868-7.037 8.368-.317 18.709.567 24.917 2.127 8.247 2.074 13.684 5.3 14.641 8.69 1.836 6.512-5.887 11.5-20.759 13.417-6.301.57-12.633.716-18.953.436zm253.132-1.431a14.5 14.5 0 0 1-6.077-1.651c-7.062-3.1-10.256-7.259-8.445-11.014.609-1.266 2.96-3.314 4.9-4.272 5.845-2.882 16.826-6.148 26.627-7.923 8.939-1.618 24.436-3.221 31.158-3.221 5.83 0 8.687 3 8.759 9.184.036 3.418-.419 4.945-2 6.68-1.067 1.17-1.659 1.519-4.233 2.5-7.419 2.823-20.867 6.031-34.862 8.318-7.792 1.276-12.143 1.661-15.829 1.4zm-214.349-54.96c-12.47-2.745-30.95-13.709-41.692-24.731-5.64-5.786-8.489-10.3-8.746-13.845-.2-2.7.131-3.011 3.161-3.011 5.537 0 18.295 4.223 30.271 10.017 15.551 7.525 24.919 14.347 28.219 20.548.536.998.934 2.063 1.183 3.168.387 3.033-1.177 5.981-3.906 7.361-1.859.929-5.539 1.142-8.489.494zm181.249-8.556c-3.274-.729-6.887-3.659-7.6-6.16a3.91 3.91 0 0 1 0-2.59c.9-3.276 6.414-8.839 15.111-15.24 1.234-.909 13.121-8.67 19.987-13.05a36.45 36.45 0 0 1 6.02-3.294c3.364-1.061 6.468-.1 9.533 2.945 2.333 2.319 3.155 3.935 3.148 6.168-.005 2.649-.777 3.947-4.426 7.5-17.279 16.815-32.923 25.7-41.779 23.725zm-140.873-28.03c-2.724-.539-3.667-1.218-9-6.454-7.568-7.437-11.714-12.875-15.258-20.018-5.653-11.392-6.509-22.28-2.7-34.264.9-2.843 1.448-3.545 2.757-3.545 2.741 0 8.006 5.067 13.2 12.706 9.664 14.212 16.289 30.035 18.493 44.172.492 2.143-.123 4.39-1.638 5.983-1.492 1.542-3.186 1.952-5.858 1.42zm73.275-1.95a8.6 8.6 0 0 1-4.369-2.585c-3.194-3.411-4.025-8.171-3.487-19.95.17-3.75.432-7.695.584-8.766l.71-5.148c1.479-10.754 6.162-24.779 9.721-29.108 2.726-3.32 6.391-4.069 10.518-2.157 4.59 2.127 6.457 5.474 6.465 11.592a174.18 174.18 0 0 1-4.947 37.349c-2.44 9.353-4.115 12.916-7.746 16.491a8.01 8.01 0 0 1-7.45 2.284zm-11.353 249.919c-2.278-1.7-4.022-5.064-5.4-10.432-1.584-6.155-2.122-13.63-1.762-24.472.514-15.488 3.343-27.771 7.239-31.428 1.715-1.608 5.151-1.025 7.64 1.3 3.094 2.889 5.755 9.229 7.149 17.033.856 4.788 1.06 17.355.383 23.819-1.119 10.733-3.57 18.509-7.129 22.614-1.173 1.653-3.131 2.565-5.151 2.4-1.063.155-2.141-.148-2.968-.833zm-76.913-15.04a6.45 6.45 0 0 1-3.315-3.289c-2.317-5.127 1.132-19.4 7.905-32.712 7-13.759 15.242-23.292 21.545-24.931 1.71-.444 3.53-.115 4.976.9a5.46 5.46 0 0 1 2.214 2.7c.769 1.61.885 2.183.98 4.808.28 7.766-3.179 18.157-10.22 30.694-6 10.7-13.625 19.251-19.128 21.482-1.572.649-3.311.77-4.958.347zm156.208-4.73c-2.577-.519-4.608-2.01-10.107-7.419-10.786-10.6-19.39-24.652-25.2-41.133-1.209-3.433-1.276-3.778-1.3-6.816s.005-3.289.815-4.841a12.5 12.5 0 0 1 5.478-5.226c1.291-.754 2.791-1.073 4.277-.909a9.33 9.33 0 0 1 4.122.727c5.74 2.367 9.97 6.834 16.472 17.393 1.983 3.218 3.783 6.844 9.1 18.322 7.957 17.183 8.268 17.922 8.4 19.947a7.28 7.28 0 0 1-2.057 5.826c-2.78 3.208-6.65 4.806-10 4.13zM32.735 240.586c-1.728-.544-3.755-2.469-4.009-3.808-.393-2.066.707-4.467 3.634-7.93 5.992-7.087 17.132-14.863 27.653-19.3 4.644-1.957 9.8-2.9 12.269-2.238 2.731.686 4.549 3.269 4.272 6.072-.393 3.747-4.961 9.794-11.04 14.613-6.985 5.535-16.214 10.447-22.983 12.227-2.947.775-7.9.957-9.8.362zm277.226-3.011c-2.477-.767-15.358-7.052-23.222-11.331-8.06-4.386-18.1-10.25-23.873-13.947l-4.23-2.664a17.29 17.29 0 0 1-4.292-4.388c-.704-1.734-.873-3.638-.486-5.469a12.47 12.47 0 0 1 3.112-5.619c3.505-3.117 10.307-3 18.367.314 6.098 2.655 11.921 5.902 17.385 9.693l4.4 3.087c5.557 3.77 20.558 14.461 20.982 14.952a6.25 6.25 0 0 1 1.371 4.5c-.048 2.482-.67 4.919-1.818 7.12-1.116 2.355-1.846 3.114-3.572 3.712a5.95 5.95 0 0 1-4.125.041zm-173.374-.327c-20.478-2.479-38.837-13.816-50.227-31.013-8.571-12.86-12.437-28.627-11.439-46.661 1.257-22.816 8.273-40.991 21.782-56.434 6.36-7.27 20.252-18.993 29.248-24.685 9.207-5.821 15.268-7.624 20.877-6.2 6.347 1.613 9 6.3 8.1 14.331-.985 8.779-4.83 15.2-11.873 19.811a74.66 74.66 0 0 0-14.018 11.389 65.39 65.39 0 0 0-7.892 9.267 69.66 69.66 0 0 0-12.021 29.922 57.88 57.88 0 0 0 .383 18.373 44.87 44.87 0 0 0 17.21 26.736c5.493 4.036 11.215 6.431 19.02 7.956 3.675.719 15.739.724 19.786.005a63.29 63.29 0 0 0 18.655-6.016 73.09 73.09 0 0 0 14.337-9.166c14.977-11.815 24.374-27.377 27.231-45.1.653-4.99.793-10.034.419-15.053-.339-2.907-.35-2.932-1.859-4.912-3.531-4.651-8.071-8.441-13.278-11.085a28.17 28.17 0 0 0-13.55-2.927c-7.257 0-14.139 1.864-22.937 6.2-12.987 6.409-18.992 13.868-18.4 22.854.205 3.097 1.07 6.115 2.538 8.85 1.5 3.069 2.366 4.221 4.411 5.834 4.315 3.406 6.139 4.487 7.329 4.353.73-.086.756-.144.725-1.757-.033-1.7-.849-4.094-2.942-8.627-.951-1.797-1.61-3.734-1.954-5.738-.306-2.055-.022-4.155.82-6.054.882-1.676 4.174-4.608 6.393-5.695 3.31-1.621 5.064-1.972 9.867-1.978 8.569-.005 13.622 1.737 18.318 6.333 4.584 4.331 7.121 10.401 6.982 16.706 0 5.044-1.191 9.68-3.95 15.385-3.395 7.021-7.4 11.888-12.673 15.413-7.157 4.781-15.029 6.419-28.888 6.014-10.032-.294-14.479-1.585-18.233-5.292-3.685-3.636-8.852-13.308-13.4-25.075-2.635-6.586-3.135-13.834-1.43-20.72 2.227-9.265 8.031-18.312 18.051-28.136 7.8-7.649 15.5-13.314 23.508-17.281 5.524-2.748 11.422-4.669 17.505-5.7a76.78 76.78 0 0 1 15.829-.144 66.01 66.01 0 0 1 24.31 8.71c9.4 5.991 17.986 16.512 20.355 24.958 2.443 8.718 2.957 13.731 2.96 28.853 0 15.088-.324 18.074-2.824 25.743-2.468 6.944-6.151 13.394-10.878 19.049-5.636 6.353-12.093 11.927-19.2 16.575-7.797 4.917-15.988 9.182-24.487 12.751-10.899 4.288-22.285 7.217-33.9 8.72-5.262.755-19.8.962-24.7.357zm-109.99-73.619c-7.27-.615-15.965-2.7-20.491-4.907-4.338-2.114-6.077-4.092-6.077-6.9 0-6.419 8.782-11.073 23.9-12.665 6.067-.381 12.151-.382 18.218-.005 13.4 1.208 23.742 5.013 25.982 9.569.911 1.992.818 4.298-.249 6.211-2.533 4.348-10.253 7.378-21.864 8.579a146.63 146.63 0 0 1-19.414.124zm252.695-1.532c-3.415-1.121-6.626-2.786-9.51-4.93-2.206-1.985-3.065-3.55-3.037-5.535.051-3.785 3.521-6.264 13.537-9.67a136.1 136.1 0 0 1 25.58-5.829c13.1-1.767 24.691-2.451 27.926-1.651 2.181.735 3.854 2.506 4.464 4.725.694 2.274.73 7.378.054 8.882-.782 1.647-2.112 2.97-3.762 3.745-6.051 2.613-16.16 5.3-29.255 7.784-14.211 2.692-22.273 3.459-26 2.479zM69.42 107.702c-7.589-.815-20.463-6.91-32.223-15.256-8.312-5.9-16.25-14.023-19.074-19.52-1.538-3-1.764-6.214-.5-7.09s5.01-.448 10.95 1.263c7.455 2.08 14.695 4.864 21.623 8.313 16.8 8.037 27.165 15.96 29.487 22.533a9.15 9.15 0 0 1-.206 5.482c-1.535 3.332-5.025 4.813-10.06 4.274zm178.176-9.146a13.6 13.6 0 0 1-5.683-4.1c-1.607-2.294-1.291-5.016.921-7.923 3.479-4.575 10.091-9.905 21.5-17.332 17.616-11.47 17.6-11.46 20.993-11.24 2.582.165 4 .871 6.478 3.228 3.22 3.061 4.012 5.715 2.721 9.113-.5 1.312-1.137 2.1-3.886 4.77-13.046 12.7-25.907 21.411-34.628 23.47a17.62 17.62 0 0 1-8.415.018zM106.239 70.375c-3.644-1.253-13.205-11.019-18.6-19-5.812-8.606-8.476-16.025-9.2-25.627-.447-5.955 1.808-16.95 3.868-18.856 1.016-.939 1.458-.95 3.235-.076 4.032 1.985 9.963 9.179 15.952 19.35 5.976 9.907 10.363 20.689 13 31.954 1.047 4.578 1.3 7.052.872 8.6a6.4 6.4 0 0 1-3.135 3.864c-1.979.504-4.061.432-6-.208zm74.409-1.608c-3.343-1.005-5.357-3.279-6.792-7.672-.558-1.714-.651-2.694-.766-8.209-.392-13.189 1.597-26.34 5.869-38.824C182.778 3.235 185.416.007 190.444.007c4.632-.124 8.805 2.783 10.294 7.171.55 1.413.62 2.094.6 5.91a161.5 161.5 0 0 1-5.74 40.032c-1.818 6.153-2.8 8.427-4.778 11.027-2.551 3.363-5 4.894-7.738 4.859a11.91 11.91 0 0 1-2.433-.238zm-11.565 249.452c-2.939-2.6-5.125-8.738-6.285-17.638-.489-3.753-.481-19.388.005-24.214 1.353-13.253 4.053-22.138 7.473-24.609 1.756-1.266 5.377-.322 7.571 1.973 2.389 2.5 3.9 5.439 5.442 10.592 1.767 5.89 2.443 11.116 2.438 18.854-.005 15.891-2.947 28.868-7.7 33.985-1.844 1.988-2.646 2.342-5.31 2.342h-2.189l-1.453-1.286zm-76.193-14.45a6.27 6.27 0 0 1-3.569-3.732c-.535-1.39-.581-1.932-.44-5.439.17-4.287.64-6.685 2.466-12.584 3.135-10.121 9.978-23.1 16.042-30.415 2.466-2.975 6.866-6.9 8.926-7.971 2.549-1.319 5.107-1.585 6.846-.712 5.912 2.97 5.763 12.177-.455 27.847-.746 1.884-4.14 8.576-5.858 11.556a73.47 73.47 0 0 1-11.151 15.215c-5.331 5.393-9.554 7.447-12.809 6.231zm155.172-4.968a12.7 12.7 0 0 1-2.394-1.134c-1.947-1.213-9.626-8.781-13-12.81a111.94 111.94 0 0 1-19-34.443c-1.363-3.955-1.463-4.431-1.484-7.029s.036-2.912.89-4.613a11.57 11.57 0 0 1 5.7-5.462c1.988-.919 2.209-.96 4.709-.871s2.752.162 5.282 1.441c4.755 2.405 8.865 6.842 14.044 15.162 2.616 4.313 4.977 8.775 7.072 13.364.288.714 1.35 3.054 2.361 5.2 4.608 9.764 8.69 18.856 8.991 20.034.671 2.623-.278 5.507-2.574 7.839-3.094 3.137-7.123 4.4-10.6 3.327zM33.393 240.963c-1.695-.419-3.189-1.418-4.225-2.823-1.319-2.1-.4-5.3 2.525-8.809a70.7 70.7 0 0 1 9.832-9.222c12.457-9.222 24.544-14.278 30.953-12.954a6.55 6.55 0 0 1 3.744 3.2 8 8 0 0 1-.257 5.687c-2.9 6.414-10.382 13.2-21.1 19.142-8.579 4.755-16.466 6.88-21.468 5.783zm276.84-3.14c-3.7-.99-20.921-9.728-33.213-16.848-8.216-4.758-11.11-6.515-18.092-10.984a15.01 15.01 0 0 1-4.706-4.629c-.4-.719-.517-1.552-.519-3.58 0-2.385.087-2.826.874-4.467a8.21 8.21 0 0 1 4.416-4.6c2.42-1.1 6.231-1.253 10.032-.415 6.344 1.4 16.443 6.457 24.655 12.341l16.1 11.338c4.079 2.8 8.142 5.728 8.453 6.1 2.091 2.5 1.875 7.307-.55 12.08-1.1 2.167-2.135 3.119-3.978 3.659-1.104.498-2.369.5-3.474.005zm-172.562-.3q-23.689-2.533-41.517-19.454c-11.7-11.088-18.423-24.457-20.859-41.475-.718-5.018-.72-18.884 0-24.3a103.08 103.08 0 0 1 5.015-21.793c5.593-15.025 13.573-26.333 26.4-37.406l3.533-3.076c1.592-1.41 6.015-4.877 9.811-7.692 9.3-6.9 17.639-10.8 23.083-10.792a18.99 18.99 0 0 1 7.327 1.993c3.13 1.978 4.732 5.307 4.732 9.84.142 4.537-.867 9.036-2.932 13.078a25.22 25.22 0 0 1-8.942 9.964c-5.031 3.112-9.654 6.838-13.764 11.093-5.372 5.174-9.847 11.206-13.239 17.848-3.523 6.773-5.915 14.076-7.082 21.621a72.15 72.15 0 0 0-.17 15.306c1.939 11.007 6.573 19.785 14.113 26.736 12.614 11.63 32.544 14.752 52.876 8.285 13.774-4.383 29.759-16.724 38.488-29.719 8.466-12.607 12.637-27.463 11.583-41.262-.059-1.569-.29-3.126-.689-4.644a32.04 32.04 0 0 0-2.24-2.988c-4.388-5.506-10.327-9.568-17.048-11.663-8.867-2.545-19.411-.856-31.454 5.036-10.1 4.945-16.43 11.118-17.932 17.494a20.6 20.6 0 0 0 1.867 13.739c2.024 4.115 2.515 4.662 7.45 8.315 2.489 1.841 4.683 2.55 5.046 1.623.414-1.066-.3-3.178-4.022-11.825a9.4 9.4 0 0 1-1.008-5.287c.005-3.747.453-4.732 3.312-7.449 3.127-2.973 6.707-4.434 12.071-4.932a42.64 42.64 0 0 1 10.444 1c6.727 1.74 12.267 6.5 15 12.888 3.541 7.761 2.142 17.924-3.909 28.417a35.92 35.92 0 0 1-14.941 14.293c-4.549 2.251-9.381 3.259-17.611 3.674-10.5.529-18.58-.517-22.8-2.952-4.873-2.811-10.536-12.351-16.358-27.561-1.893-4.948-2.24-6.907-2.232-12.64.005-6.166.5-8.637 2.816-14.18 5.946-14.23 23.438-31.592 39.763-39.467 9.474-4.57 16.3-6.188 26.082-6.188 15.579 0 31.125 6.378 41.113 16.871 5.516 5.8 9.492 12.045 10.9 17.127 2.5 9.037 3.449 18.616 3.168 32.074-.249 11.87-.769 15.914-2.888 22.431a63.43 63.43 0 0 1-10.966 19.34c-8.432 9.6-17.374 16.3-32.449 24.3-2.458 1.3-8.8 4.135-12.547 5.606-12.512 4.809-25.647 7.809-39.007 8.908a118.91 118.91 0 0 1-17.382-.149zm-109.358-73.6a98.16 98.16 0 0 1-10.49-1.39l-3.392-.836c-7.406-1.821-12.843-4.707-14-7.434-.673-1.939-.549-4.065.345-5.912 2.574-4.889 11.843-8.439 24.822-9.508 6.516-.322 13.048-.17 19.542.453 9.142 1.119 16.366 3.416 20.653 6.573 4.544 3.345 4.156 8.918-.856 12.306-5.6 3.783-14.229 5.662-27.044 5.884-3.5.058-7.81 0-9.582-.139zm252.664-1.375c-3.361-.37-9.315-3.294-11.884-5.834-1.924-1.9-2.533-3.13-2.533-5.087 0-2.646 1.882-4.816 5.838-6.725 5.74-2.773 14.659-5.52 23.983-7.386 9.1-1.823 25.907-3.651 33.447-3.639a11.28 11.28 0 0 1 5.92 1.342c2.217 1.555 3.348 5.031 3.1 9.51-.3 5.292-1.44 6.447-8.924 9.012-3.009 1.033-10.212 3.033-13.19 3.666l-5.514 1.188-5.511 1.134-4.662.858c-8.121 1.507-16.626 2.337-20.069 1.96zM67.972 107.709c-4.573-1.147-9.026-2.726-13.3-4.717-10.273-4.828-19.71-11.264-27.954-19.066a47.06 47.06 0 0 1-7.838-9.346c-1.648-2.7-2.189-4.307-2.189-6.49 0-2.438.417-2.783 3.361-2.765a21.53 21.53 0 0 1 3.737.357c14.967 3.36 35.432 12.784 46.894 21.593 5.071 3.9 8.458 7.984 9.33 11.255a8.45 8.45 0 0 1-.453 5.051 10.23 10.23 0 0 1-3.634 3.641c-1.322.666-5.5.922-7.962.486zm180.014-8.86c-3.194-.934-6.19-3.474-7.031-5.963-.609-1.808-.224-3.656 1.2-5.781a67.81 67.81 0 0 1 8.7-8.7l4.025-3c2.986-2.236 9.5-6.54 19.712-13.022 7.882-5.006 9.163-5.414 13.044-4.16 1.527.488 2.899 1.367 3.981 2.55 2.708 2.489 3.6 4.12 3.624 6.588.018 2.876-.795 4.216-5.11 8.394a164.15 164.15 0 0 1-17.238 14.5c-3.68 2.491-7.544 4.698-11.56 6.6-5.354 2.314-9.927 3-13.347 2zM107.154 70.812c-2.471-.653-3.719-1.557-8.142-5.9-7.37-7.234-12.059-13.339-15.543-20.231a42.7 42.7 0 0 1-5.076-21.847 41.31 41.31 0 0 1 2.07-12.551c.944-2.892 1.306-3.469 2.592-4.125.54-.276.913-.195 2.4.511 2.736 1.3 5.151 3.641 9.677 9.381 3.2 4.061 9.446 14.848 12.866 22.229 3.78 8.153 7.687 21.535 7.72 26.44.018 3.866-2.477 6.586-6.01 6.52-.864-.059-1.72-.202-2.556-.428zm73.624-1.876c-1.537-.444-2.952-1.236-4.135-2.314-3.317-3.527-4.279-8.915-3.68-20.593.753-14.678 2.937-25.323 7.468-36.413q3.1-7.573 6.65-9.082c2.299-.657 4.732-.692 7.049-.1a11.25 11.25 0 0 1 6.63 6.259c1.646 4.127.381 21.887-2.631 37.014-.643 3.223-2.677 10.733-3.734 13.777-1.8 5.193-4.881 9.374-8.09 10.984-1.742.758-3.684.924-5.529.471zm-11.5 249.863c-2.245-1.448-4.238-5.619-5.714-11.956-1.8-7.761-2.052-22.193-.589-34.37.959-7.986 2.68-14.58 4.68-17.952 2.291-3.859 4.367-4.527 8.178-2.638 4.65 2.307 8.384 10.964 9.78 22.677a124.57 124.57 0 0 1-.309 21.707c-1.067 8.518-3.22 15.734-5.83 19.558-2.155 3.152-3.137 3.689-6.715 3.664-2.086-.018-2.59-.114-3.479-.689zm-76.69-14.883c-2.906-1.1-4.1-3.545-4.094-8.368a41.82 41.82 0 0 1 1.846-11.247l1.024-3.479c1.137-4.1 5.519-13.61 8.947-19.411l1.746-2.99c3.158-5.49 10.549-13.329 14.288-15.154a9.35 9.35 0 0 1 6.419-.874c2.79.906 4.781 4.12 4.963 8.011.393 8.3-3.914 20.77-11.706 33.9-1.463 2.461-2.495 4.084-3.436 5.4l-1.625 2.319c-2.167 2.72-4.512 5.292-7.021 7.7-.337.223-1.083.818-1.661 1.322a14.79 14.79 0 0 1-4.971 2.912 5.79 5.79 0 0 1-4.719-.035zm154.65-5c-3.04-1.532-9.893-8.014-15.021-14.2a105.64 105.64 0 0 1-14.628-23.657 118.34 118.34 0 0 1-5.2-13.5 16.06 16.06 0 0 1-.512-4.32c-.005-2.466.054-2.785.962-4.593 1.203-2.394 3.14-4.34 5.529-5.553 1.318-.675 2.79-.995 4.269-.929a8.28 8.28 0 0 1 4.449.635 21.35 21.35 0 0 1 10.364 8.044c.561.785 1.592 2.178 2.291 3.1s1.618 2.233 2.039 2.922l2.333 3.758a126.93 126.93 0 0 1 6.8 13.445c.872 1.942 2.014 4.353 2.538 5.358a13.92 13.92 0 0 1 .957 2.071 12.42 12.42 0 0 0 .836 1.929c1.294 2.608 5.835 12.7 6.193 13.764.559 1.858.404 3.858-.435 5.608-1.452 2.566-3.676 4.61-6.355 5.841-2.484.917-5.892 1.043-7.411.276zm-214.033-57.73c-1.666-.362-3.132-1.344-4.1-2.747-1.247-1.694-1.16-3.449.314-6.333.972-1.907 1.736-2.823 5.3-6.361 6.948-6.895 15.152-12.395 24.169-16.205 8.96-3.937 15.253-3.828 17.374.306 1.908 3.715-.262 8.713-6.416 14.767-3.683 3.711-7.86 6.898-12.413 9.47-.874.456-2.1 1.142-2.723 1.527s-1.512.886-1.978 1.112a39.96 39.96 0 0 0-1.273.646c-2.155 1.027-4.374 1.912-6.643 2.651-5.192 1.55-8.595 1.891-11.614 1.17zm276.146-3.332c-1.18-.323-2.317-.787-3.387-1.382-.402-.297-.839-.544-1.3-.737-.252 0-6.062-2.659-7.018-3.211-.388-.223-2.806-1.491-5.372-2.818l-7.288-3.9c-1.445-.821-2.685-1.484-2.759-1.484s-1.245-.671-2.6-1.489-3.482-2.031-4.719-2.694-3.017-1.722-3.958-2.355-2.471-1.57-3.4-2.089c-1.471-.82-4.508-2.7-8.479-5.249-1.768-1.03-3.307-2.411-4.524-4.056a5.5 5.5 0 0 1-1.193-3.735c-.347-4.948 2.224-9.179 6.424-10.574 4.652-1.547 12.419-.035 19.925 3.887a91.6 91.6 0 0 1 13.247 7.875l4.986 3.426c1.01.671 2.854 1.97 4.1 2.887s3.279 2.355 4.523 3.2l3.711 2.562 4.1 2.887c3.891 2.73 4.423 3.216 5.048 4.606 1.1 2.454.509 6.885-1.443 10.764-1.016 2.018-1.728 2.823-3.122 3.527-1.648.833-2.965.868-5.493.152zm-168.578.205l-3.968-.377c-5.383-.511-10.459-1.788-18.529-4.659-3.107-1.1-10.194-5.079-14.25-7.989-10.806-7.756-20.044-19.208-24.266-30.081-3.74-9.563-5.578-19.763-5.411-30.03-.082-11.946 1.907-23.815 5.879-35.082.874-2.373 3.459-8.351 4.212-9.741a89.08 89.08 0 0 1 15.151-20.725c4.644-4.732 18.223-16.347 19.851-16.98a2.89 2.89 0 0 0 .985-.706c.926-1.1 9.381-6.209 12.995-7.854 4.055-1.843 6.133-2.375 9.327-2.38 4.225-.005 6.185.567 8.931 2.623q3.788 2.841 3.788 9.746c.13 7.033-2.501 13.837-7.329 18.952-2.347 2.321-4.989 4.324-7.859 5.955-4.048 2.436-14.206 12.139-17.032 16.266-.388.57-1.222 1.7-1.852 2.524a66.76 66.76 0 0 0-9.487 19.439c-.235.939-.518 1.865-.846 2.775-.571 1.312-1.651 7.5-1.978 11.328-1.108 13 2.857 25.247 11.161 34.464 7.165 7.953 15.366 12.336 26.6 14.22 7.683.939 15.47.587 23.037-1.043 6.977-1.838 8.723-2.459 13.681-4.862a40.32 40.32 0 0 0 6.087-3.282 7.96 7.96 0 0 1 1.324-.82c.82-.408 4.043-2.75 8.193-5.948 4.03-3.109 11.171-10.774 14.854-15.942a100.3 100.3 0 0 0 5.323-9.062c.193-.548.422-1.083.687-1.6 4.438-9.669 6.43-20.28 5.8-30.9-.268-3.915-.278-3.95-1.327-5.472-3.709-4.863-8.417-8.874-13.807-11.764-6.347-3.147-14.43-3.773-22.3-1.727l-3.834.98c-.633.162-1.248.387-1.836.671a4.13 4.13 0 0 1-1.147.428c-1.147.005-9.788 4.345-13.447 6.753-5.046 3.32-7.669 6.079-9.945 10.465a14.4 14.4 0 0 0-1.584 7.161c-.005 3.327.707 6.039 2.649 9.956 1.571 3.17 1.762 3.413 4.356 5.6 3.75 3.165 6.794 4.7 7.208 3.644-.076-1.627-.436-3.228-1.065-4.73-3.449-7.558-4.1-9.513-4.109-12.255-.005-3.056.63-4.53 3.058-7.062 1.232-1.469 2.799-2.62 4.57-3.355 4.549-2.076 8.157-2.55 14.185-1.856a39.83 39.83 0 0 1 5.653 1.018 23.9 23.9 0 0 1 8.45 4.808c1.648 1.6 4.215 4.849 4.215 5.33a1.71 1.71 0 0 0 .437.7c.756.823 2.348 5.669 2.687 8.189a28.67 28.67 0 0 1-.548 9.885c-1.255 4.72-1.407 5.241-1.672 5.74-.154.289-.761 1.588-1.355 2.889-.736 1.574-1.557 3.106-2.46 4.591l-1.852 3.061c-.782 1.421-6.565 6.907-8.8 8.348-7.165 4.621-13.465 6.074-26.429 6.092-8.9.005-13.9-.805-17.971-2.93q-5.022-2.621-10.675-13.962c-2.356-4.73-2.638-5.34-3.847-8.262l-1.132-2.643c-2.736-5.948-4.084-12.9-3.536-18.233a45.4 45.4 0 0 1 5-16.114 76.52 76.52 0 0 1 7.239-10.594c3.727-4.325 7.763-8.374 12.076-12.116a149.48 149.48 0 0 0 2.963-2.509 57.55 57.55 0 0 1 7.026-5.074c.918-.572 2.189-1.423 2.826-1.889 3.1-2.271 11.321-5.836 17.557-7.619a55.66 55.66 0 0 1 17.24-1.722c9.781.634 19.285 3.505 27.782 8.391 5.524 3.084 12.681 9.918 16.878 16.124 3.032 4.479 3.958 6.439 5.079 10.746 2.345 9 3.14 17.489 2.891 30.868-.172 9.153-.573 13.964-1.492 17.876a74.48 74.48 0 0 1-3.263 9.809 6.12 6.12 0 0 0-.53 1.142c-1.418 2.86-3.006 5.634-4.755 8.305-.862 1.291-2.477 3.421-3.593 4.732a96.42 96.42 0 0 1-8.5 8.657 24.8 24.8 0 0 0-2.127 1.808c-1.705 1.593-3.338 2.763-10 7.163-5.056 3.342-5.323 3.5-13.707 7.877a131.16 131.16 0 0 1-17.819 7.2 129.37 129.37 0 0 1-25.853 5.836c-6.888.87-13.839 1.141-20.774.81zM28.132 164.194c-11.189-.856-21.36-3.707-25.933-7.272-1.633-1.274-2.194-2.664-2.194-5.457 0-2 .111-2.545.73-3.666 2.268-4.1 10.027-7.34 21.466-8.956 3.364-.476 16.991-.486 21.617-.018a62.42 62.42 0 0 1 13.419 2.714c8.147 2.6 11.508 5.269 11.9 9.46.252 2.669-.465 4.327-2.765 6.373-4.914 4.378-14.512 6.725-28.494 6.968-3.5.058-7.887-.005-9.752-.149zm253.119-1.372c-5.259-.476-12.583-4.765-14.381-8.422-1.7-3.454.193-7.277 4.693-9.483 5.4-2.643 12.241-4.841 22.266-7.148 9.793-1.966 19.707-3.267 29.676-3.894 8.569-.549 10.8-.276 12.892 1.59 1.4 1.241 1.669 1.729 2.129 3.836a29 29 0 0 1 .052 8.819 7.49 7.49 0 0 1-4.243 4.234l-2.348 1.018c-1.227.562-9.055 2.836-13.427 3.9-2.214.539-11.333 2.459-13.71 2.881-1.4.251-3.117.587-3.816.749s-2.543.466-4.1.679c-10.3 1.408-12.164 1.555-15.687 1.236zm-213.4-54.832c-2.752-.476-10.171-3.18-14.275-5.2a113.14 113.14 0 0 1-21.057-13.268c-4.948-3.773-11.565-10.728-13.735-14.438-2.027-3.456-2.181-3.854-2.317-5.935-.18-2.783.018-3.4 1.291-3.92 2.6-1.069 10.945.932 23.24 5.571 1.71.646 2.819 1.119 7.208 3.087a199.9 199.9 0 0 1 18.231 9.928c3.097 1.961 5.946 4.288 8.487 6.93 2.664 2.618 3.459 3.6 4.377 5.393.836 1.276 1.226 2.791 1.111 4.312a7.21 7.21 0 0 1-4.493 7.032 7.39 7.39 0 0 1-4.251.762 32.61 32.61 0 0 1-3.816-.251zm180.616-8.766c-2.119-.361-4.054-1.427-5.491-3.026-2.3-2.266-2.955-3.93-2.435-6.209.207-.883.528-1.735.954-2.535.674-1.127 8.721-9.239 9.168-9.239.268-.076.503-.24.666-.466a41.93 41.93 0 0 1 3.5-2.722 165.13 165.13 0 0 1 6.925-4.8c1.227-.808 6.843-4.383 8.9-5.664 1.088-.679 2.7-1.734 3.58-2.35s2.258-1.491 3.06-1.952a15.75 15.75 0 0 0 1.846-1.185c1.818-1.666 6.7-2.109 9.461-.861 1.947.881 5.511 4.3 6.288 6.031a10.74 10.74 0 0 1 .7 2.849 5.18 5.18 0 0 1-.748 3.5c-.764 1.608-1.512 2.479-5.053 5.89a125.23 125.23 0 0 1-21.124 16.777c-8.8 5.358-15.055 7.2-20.2 5.96zM107.205 71.108a16.36 16.36 0 0 1-2.633-.972c-1.52-.762-10.611-9.683-13.463-13.21-9.168-11.339-13.414-22.512-13-34.231a41.13 41.13 0 0 1 2.116-12.63c.954-2.879 1.147-3.231 2.114-3.866l1.065-.7 1.862.78c2.065.863 5.815 4.11 7.795 6.748.6.808 1.636 2.079 2.289 2.831.701.811 1.344 1.67 1.926 2.57l2.569 4.127c5.541 8.778 9.948 18.223 13.116 28.108.856 2.818 1.209 4.163 2.366 9.047.144.61.414 2.114.6 3.34.43 2.838-.062 4.76-1.648 6.525-1.7 1.881-3.924 2.365-7.07 1.532zm73.534-1.894a10.07 10.07 0 0 1-6.838-6.517c-2.7-6.956-1.414-27.769 2.615-42.506 2.1-7.665 5.064-14.714 7.365-17.5 1.777-2.15 3.091-2.684 6.56-2.669 1.352-.011 2.702.107 4.032.354 2.911.919 5.261 3.088 6.409 5.917.715 1.534.774 1.962.88 6.239.224 9.037-2.037 26.9-4.65 36.735-2.134 8.042-3.775 12.156-6.149 15.428-2.811 3.869-6.419 5.462-10.225 4.512z" fill="#eefbe3"/></svg>